<?xml version="1.0" encoding="UTF-8"?>
<svg width="3653px" height="562px" viewBox="0 0 3653 562" version="1.1" xmlns="http://www.w3.org/2000/svg" xmlns:xlink="http://www.w3.org/1999/xlink">
    <!-- Generator: Sketch 52.3 (67297) - http://www.bohemiancoding.com/sketch -->
    <title>large</title>
    <desc>Created with Sketch.</desc>
    <g id="Page-1" stroke="none" stroke-width="1" fill="none" fill-rule="evenodd">
        <g id="large" transform="translate(-30.000000, -35.000000)">
            <g id="Icon" transform="translate(2500.000000, 35.000000)">
                <g id="Group-2">
                    <g id="ai" transform="translate(476.000000, 22.000000)">
                        <g id="connections" transform="translate(0.000000, 10.000000)" stroke="#616161" stroke-width="6">
                            <path d="M12,232 L127.555244,263.5" id="Path-2"></path>
                            <path d="M0.5,225.5 L127.555244,8.5" id="Path-2"></path>
                            <path d="M132,8.5 L227,8.5" id="Path-2"></path>
                            <path d="M132,8.5 L227,137.5" id="Path-2"></path>
                            <path d="M132,8.5 L227,264.5" id="Path-2"></path>
                            <path d="M132,8.5 L227,379.5" id="Path-2"></path>
                            <path d="M132,137.5 L227,8.5" id="Path-2"></path>
                            <path d="M132,137.5 L227,137.5" id="Path-2"></path>
                            <path d="M132,137.5 L227,264.5" id="Path-2"></path>
                            <path d="M132,264.5 L227,264.5" id="Path-2"></path>
                            <path d="M132,264.5 L227,136.5" id="Path-2"></path>
                            <path d="M132,264.5 L227,8.5" id="Path-2"></path>
                            <path d="M132,264.5 L227,379.5" id="Path-2"></path>
                            <path d="M132,379.5 L227,379.5" id="Path-2"></path>
                            <path d="M132,379.5 L227,263.5" id="Path-2"></path>
                            <path d="M132,379.5 L227,136.5" id="Path-2"></path>
                            <path d="M132,379.5 L227,0.5" id="Path-2"></path>
                            <path d="M315,264.5 L227,8.5" id="Path-2"></path>
                            <path d="M315,264.5 L227,136.5" id="Path-2"></path>
                            <path d="M315,264.5 L227,264.5" id="Path-2"></path>
                            <path d="M315,264.5 L227,379.5" id="Path-2"></path>
                            <path d="M315,149.5 L227,8.5" id="Path-2"></path>
                            <path d="M315,149.5 L227,8.5" id="Path-2"></path>
                            <path d="M315,149.5 L227,137.5" id="Path-2"></path>
                            <path d="M315,149.5 L227,264.5" id="Path-2"></path>
                            <path d="M315,149.5 L227,379.5" id="Path-2"></path>
                            <path d="M132,137.5 L227,379.5" id="Path-2"></path>
                            <path d="M12,225.5 L132,137.5" id="Path-2"></path>
                            <path d="M0.5,121 L132,137.5" id="Path-2"></path>
                            <path d="M0.5,121 L127.555244,8.5" id="Path-2"></path>
                            <path d="M0.5,121 L127.555244,264.5" id="Path-2"></path>
                            <path d="M0.5,121 L132,379.5" id="Path-2"></path>
                            <path d="M12,234 L127.555244,374.592214" id="Path-2"></path>
                        </g>
                        <g id="nodes" transform="translate(113.000000, 0.000000)">
                            <g id="ai_layer2">
                                <g id="node_group">
                                    <g>
                                        <rect id="Rectangle" stroke="#616161" stroke-width="6" fill="#FFFFFF" x="3" y="3" width="32" height="32"></rect>
                                        <text id="01-10" font-family="AndaleMono, Andale Mono" font-size="11" font-weight="normal" fill="#000000">
                                            <tspan x="12.3989258" y="17">01</tspan>
                                            <tspan x="12.3989258" y="29">10</tspan>
                                        </text>
                                    </g>
                                </g>
                                <g id="node_group" transform="translate(0.000000, 127.000000)">
                                    <g>
                                        <rect id="Rectangle" stroke="#616161" stroke-width="6" fill="#FFFFFF" x="3" y="3" width="32" height="32"></rect>
                                        <text id="01-10" font-family="AndaleMono, Andale Mono" font-size="11" font-weight="normal" fill="#000000">
                                            <tspan x="12.3989258" y="17">01</tspan>
                                            <tspan x="12.3989258" y="29">10</tspan>
                                        </text>
                                    </g>
                                </g>
                                <g id="node_group" transform="translate(0.000000, 254.000000)">
                                    <g>
                                        <rect id="Rectangle" stroke="#616161" stroke-width="6" fill="#FFFFFF" x="3" y="3" width="32" height="32"></rect>
                                        <text id="01-10" font-family="AndaleMono, Andale Mono" font-size="11" font-weight="normal" fill="#000000">
                                            <tspan x="12.3989258" y="17">01</tspan>
                                            <tspan x="12.3989258" y="29">10</tspan>
                                        </text>
                                    </g>
                                </g>
                                <g id="node_group" transform="translate(0.000000, 370.000000)">
                                    <g>
                                        <rect id="Rectangle" stroke="#616161" stroke-width="6" fill="#FFFFFF" x="3" y="3" width="32" height="32"></rect>
                                        <text id="01-10" font-family="AndaleMono, Andale Mono" font-size="11" font-weight="normal" fill="#000000">
                                            <tspan x="12.3989258" y="17">01</tspan>
                                            <tspan x="12.3989258" y="29">10</tspan>
                                        </text>
                                    </g>
                                </g>
                            </g>
                            <g id="ai_layer" transform="translate(95.000000, 0.000000)">
                                <g id="node_group">
                                    <g>
                                        <rect id="Rectangle" stroke="#616161" stroke-width="6" fill="#FFFFFF" x="3" y="3" width="32" height="32"></rect>
                                        <text id="01-10" font-family="AndaleMono, Andale Mono" font-size="11" font-weight="normal" fill="#000000">
                                            <tspan x="12.3989258" y="17">01</tspan>
                                            <tspan x="12.3989258" y="29">10</tspan>
                                        </text>
                                    </g>
                                </g>
                                <g id="node_group" transform="translate(0.000000, 127.000000)">
                                    <g>
                                        <rect id="Rectangle" stroke="#616161" stroke-width="6" fill="#FFFFFF" x="3" y="3" width="32" height="32"></rect>
                                        <text id="01-10" font-family="AndaleMono, Andale Mono" font-size="11" font-weight="normal" fill="#000000">
                                            <tspan x="12.3989258" y="17">01</tspan>
                                            <tspan x="12.3989258" y="29">10</tspan>
                                        </text>
                                    </g>
                                </g>
                                <g id="node_group" transform="translate(0.000000, 254.000000)">
                                    <g>
                                        <rect id="Rectangle" stroke="#616161" stroke-width="6" fill="#FFFFFF" x="3" y="3" width="32" height="32"></rect>
                                        <text id="01-10" font-family="AndaleMono, Andale Mono" font-size="11" font-weight="normal" fill="#000000">
                                            <tspan x="12.3989258" y="17">01</tspan>
                                            <tspan x="12.3989258" y="29">10</tspan>
                                        </text>
                                    </g>
                                </g>
                                <g id="node_group" transform="translate(0.000000, 371.000000)">
                                    <g>
                                        <rect id="Rectangle" stroke="#616161" stroke-width="6" fill="#FFFFFF" x="3" y="3" width="32" height="32"></rect>
                                        <text id="01-10" font-family="AndaleMono, Andale Mono" font-size="11" font-weight="normal" fill="#000000">
                                            <tspan x="12.3989258" y="17">01</tspan>
                                            <tspan x="12.3989258" y="29">10</tspan>
                                        </text>
                                    </g>
                                </g>
                            </g>
                            <g id="ai_layer3" transform="translate(183.000000, 141.000000)">
                                <g id="node_group" transform="translate(0.000000, 116.000000)">
                                    <g>
                                        <rect id="Rectangle" stroke="#616161" stroke-width="6" fill="#FFFFFF" x="3" y="3" width="32" height="32"></rect>
                                        <text id="01-10" font-family="AndaleMono, Andale Mono" font-size="11" font-weight="normal" fill="#000000">
                                            <tspan x="12.3989258" y="17">01</tspan>
                                            <tspan x="12.3989258" y="29">10</tspan>
                                        </text>
                                    </g>
                                </g>
                                <g id="node_group">
                                    <g>
                                        <rect id="Rectangle" stroke="#616161" stroke-width="6" fill="#FFFFFF" x="3" y="3" width="32" height="32"></rect>
                                        <text id="01-10" font-family="AndaleMono, Andale Mono" font-size="11" font-weight="normal" fill="#000000">
                                            <tspan x="12.3989258" y="17">01</tspan>
                                            <tspan x="12.3989258" y="29">10</tspan>
                                        </text>
                                    </g>
                                </g>
                            </g>
                        </g>
                    </g>
                    <g id="eeg" fill="#000000" fill-rule="nonzero">
                        <path d="M496.004,152 C496.004,138.768 485.236,128 472.004,128 C469.252,128 466.644,128.56 464.18,129.416 L428.332,84.608 C430.62,80.936 432.004,76.64 432.004,72 C432.004,58.768 421.236,48 408.004,48 C401.276,48 395.212,50.8 390.852,55.264 L327.788,26.16 C327.852,25.44 328.004,24.744 328.004,24 C328.004,10.768 317.236,0 304.004,0 C293.588,0 284.788,6.712 281.476,16 L190.532,16 C187.22,6.712 178.42,0 168.004,0 C154.772,0 144.004,10.768 144.004,24 C144.004,24.992 144.18,25.944 144.3,26.912 L104.62,46.752 C100.3,42.592 94.46,40 88.004,40 C74.772,40 64.004,50.768 64.004,64 C64.004,68.64 65.388,72.936 67.676,76.608 L31.828,121.416 C29.364,120.56 26.756,120 24.004,120 C10.772,120 0.004,130.768 0.004,144 C0.004,154.416 6.716,163.216 16.004,166.528 L16.004,217.48 C6.716,220.784 0.004,229.584 0.004,240 C0.004,253.232 10.772,264 24.004,264 C32.892,264 40.572,259.088 44.724,251.896 L88.396,259.832 C90.244,271.24 100.084,280 112.004,280 C112.324,280 112.628,279.92 112.948,279.904 L128.212,318.072 C123.22,322.472 120.004,328.84 120.004,336 C120.004,349.232 130.772,360 144.004,360 C152.052,360 159.148,355.984 163.5,349.896 L232.156,369.512 C232.772,379.256 239.172,387.376 248.004,390.528 L248.004,449.48 C238.716,452.792 232.004,461.592 232.004,472.008 C232.004,485.24 242.772,496.008 256.004,496.008 C269.236,496.008 280.004,485.24 280.004,472.008 C280.004,461.592 273.292,452.792 264.004,449.48 L264.004,390.528 C273.292,387.216 280.004,378.416 280.004,368 C280.004,360.336 276.324,353.576 270.716,349.176 L280.268,320.512 L352.052,344.44 C352.244,354.656 358.852,363.256 368.004,366.52 L368.004,449.472 C358.716,452.784 352.004,461.584 352.004,472 C352.004,485.232 362.772,496 376.004,496 C389.236,496 400.004,485.232 400.004,472 C400.004,461.584 393.292,452.784 384.004,449.472 L384.004,366.528 C393.292,363.216 400.004,354.416 400.004,344 C400.004,341.08 399.404,338.312 398.444,335.72 L459.828,284.568 C463.404,286.696 467.54,288 472.004,288 C485.236,288 496.004,277.232 496.004,264 C496.004,253.584 489.292,244.784 480.004,241.472 L480.004,174.52 C489.292,171.216 496.004,162.416 496.004,152 Z M408.004,64 C412.412,64 416.004,67.584 416.004,72 C416.004,76.416 412.412,80 408.004,80 C403.596,80 400.004,76.416 400.004,72 C400.004,67.584 403.596,64 408.004,64 Z M396.628,93 C400.028,94.856 403.868,96 408.004,96 C410.756,96 413.356,95.44 415.82,94.584 L451.668,139.4 C449.388,143.072 448.004,147.36 448.004,152 C448.004,153.288 448.188,154.528 448.388,155.768 L391.716,186.68 L350.444,152.288 C351.404,149.688 352.004,146.92 352.004,144 C352.004,140.752 351.34,137.648 350.164,134.824 L396.628,93 Z M296.004,224 C292.308,224 288.852,224.904 285.724,226.408 L251.828,192.512 L311.668,161.48 C315.964,165.496 321.676,168 328.004,168 C332.468,168 336.596,166.696 340.18,164.568 L376.604,194.92 L311.94,230.192 C307.692,226.384 302.148,224 296.004,224 Z M304.004,248 C304.004,252.416 300.412,256 296.004,256 C291.596,256 288.004,252.416 288.004,248 C288.004,243.584 291.596,240 296.004,240 C300.412,240 304.004,243.584 304.004,248 Z M183.052,159.896 L196.484,203.176 L128.34,238.512 C125.484,235.848 121.988,233.912 118.1,232.88 L107.012,147.856 L161.828,145.112 C165.308,153.544 173.468,159.512 183.052,159.896 Z M176.004,136 C176.004,131.584 179.596,128 184.004,128 C188.412,128 192.004,131.584 192.004,136 C192.004,140.416 188.412,144 184.004,144 C179.596,144 176.004,140.416 176.004,136 Z M201.292,218.712 L221.58,284.096 L135.956,255.552 C135.94,254.592 135.796,253.664 135.668,252.736 L201.292,218.712 Z M201.236,164.552 L225.06,188.368 L210.908,195.704 L201.236,164.552 Z M205.604,146.28 C207.1,143.152 208.004,139.696 208.004,136 C208.004,132.592 207.268,129.36 205.988,126.424 L243.972,90.968 L305.204,136.888 C304.492,139.16 304.004,141.512 304.004,144 C304.004,145.12 304.188,146.184 304.332,147.264 L239.956,180.64 L205.604,146.28 Z M320.004,144 C320.004,139.584 323.596,136 328.004,136 C332.412,136 336.004,139.584 336.004,144 C336.004,148.416 332.412,152 328.004,152 C323.596,152 320.004,148.416 320.004,144 Z M389.828,205.936 L447.148,253.704 L322.948,242.416 L389.828,205.936 Z M304.004,16 C308.412,16 312.004,19.584 312.004,24 C312.004,28.416 308.412,32 304.004,32 C299.596,32 296.004,28.416 296.004,24 C296.004,19.584 299.596,16 304.004,16 Z M293.012,45.208 C296.316,46.928 300.02,48 304.004,48 C310.732,48 316.796,45.2 321.164,40.728 L384.22,69.832 C384.156,70.56 384.004,71.256 384.004,72 C384.004,75.256 384.668,78.352 385.844,81.184 L339.38,123 C335.98,121.144 332.14,120 328.004,120 C323.092,120 318.524,121.496 314.716,124.04 L255.852,79.888 L293.012,45.208 Z M281.476,32 C281.668,32.52 281.804,33.064 282.02,33.568 L242.844,70.128 L192.004,32 L281.476,32 Z M168.004,16 C172.412,16 176.004,19.584 176.004,24 C176.004,28.416 172.412,32 168.004,32 C163.596,32 160.004,28.416 160.004,24 C160.004,19.584 163.596,16 168.004,16 Z M112.004,64 C112.004,63.008 111.828,62.056 111.708,61.096 L151.388,41.256 C155.708,45.408 161.548,48 168.004,48 C172.916,48 177.484,46.504 181.292,43.96 L230.964,81.216 L194.996,114.784 C191.692,113.064 187.988,112 184.004,112 C173.172,112 164.1,119.256 161.124,129.128 L104.932,131.936 L98.852,85.288 C106.62,81.312 112.004,73.312 112.004,64 Z M88.004,56 C92.412,56 96.004,59.584 96.004,64 C96.004,68.416 92.412,72 88.004,72 C83.596,72 80.004,68.416 80.004,64 C80.004,59.584 83.596,56 88.004,56 Z M80.18,86.584 C81.108,86.904 82.02,87.248 82.988,87.456 L88.892,132.744 L46.18,134.88 C45.676,133.656 45.028,132.512 44.332,131.392 L80.18,86.584 Z M24.004,136 C28.412,136 32.004,139.584 32.004,144 C32.004,148.416 28.412,152 24.004,152 C19.596,152 16.004,148.416 16.004,144 C16.004,139.584 19.596,136 24.004,136 Z M24.004,248 C19.596,248 16.004,244.416 16.004,240 C16.004,235.584 19.596,232 24.004,232 C28.412,232 32.004,235.584 32.004,240 C32.004,244.416 28.412,248 24.004,248 Z M91.284,244.104 L47.62,236.168 C46.204,227.456 40.124,220.368 32.004,217.472 L32.004,166.52 C39.148,163.968 44.684,158.168 46.884,150.864 L90.98,148.656 L102.132,234.176 C97.54,236.264 93.788,239.76 91.284,244.104 Z M112.004,264 C107.596,264 104.004,260.416 104.004,256 C104.004,251.584 107.596,248 112.004,248 C116.412,248 120.004,251.584 120.004,256 C120.004,260.416 116.412,264 112.004,264 Z M144.004,344 C139.596,344 136.004,340.416 136.004,336 C136.004,331.584 139.596,328 144.004,328 C148.412,328 152.004,331.584 152.004,336 C152.004,340.416 148.412,344 144.004,344 Z M236.516,354.104 L167.86,334.488 C167.052,321.968 156.724,312 144.004,312 C143.684,312 143.38,312.08 143.06,312.096 L127.796,273.928 C128.908,272.944 129.916,271.872 130.836,270.704 L227.428,302.904 L241.692,348.856 C239.716,350.344 237.956,352.096 236.516,354.104 Z M256.004,480 C251.596,480 248.004,476.416 248.004,472 C248.004,467.584 251.596,464 256.004,464 C260.412,464 264.004,467.584 264.004,472 C264.004,476.416 260.412,480 256.004,480 Z M256.004,376 C251.596,376 248.004,372.416 248.004,368 C248.004,363.584 251.596,360 256.004,360 C260.412,360 264.004,363.584 264.004,368 C264.004,372.416 260.412,376 256.004,376 Z M256.276,341.888 L246.108,309.136 L265.084,315.464 L256.276,341.888 Z M270.148,300.28 L240.276,290.32 L215.732,211.232 L236.932,200.24 L274.412,237.72 C272.908,240.848 272.004,244.304 272.004,248 C272.004,255.664 275.684,262.432 281.3,266.824 L270.148,300.28 Z M376.004,480 C371.596,480 368.004,476.416 368.004,472 C368.004,467.584 371.596,464 376.004,464 C380.412,464 384.004,467.584 384.004,472 C384.004,476.416 380.412,480 376.004,480 Z M376.004,352 C371.596,352 368.004,348.416 368.004,344 C368.004,339.584 371.596,336 376.004,336 C380.412,336 384.004,339.584 384.004,344 C384.004,348.416 380.412,352 376.004,352 Z M388.18,323.424 C384.596,321.304 380.468,320 376.004,320 C368.34,320 361.572,323.68 357.18,329.296 L285.324,305.344 L296.452,271.952 C305.908,271.776 313.996,266.112 317.74,258.008 L448.828,269.92 C449.036,270.72 449.276,271.504 449.564,272.272 L388.18,323.424 Z M404.94,197.688 L456.068,169.8 C458.364,171.864 461.044,173.464 464.012,174.52 L464.012,241.472 C462.54,242 461.148,242.648 459.828,243.432 L404.94,197.688 Z M472.004,272 C467.596,272 464.004,268.416 464.004,264 C464.004,259.584 467.596,256 472.004,256 C476.412,256 480.004,259.584 480.004,264 C480.004,268.416 476.412,272 472.004,272 Z M472.004,160 C467.596,160 464.004,156.416 464.004,152 C464.004,147.584 467.596,144 472.004,144 C476.412,144 480.004,147.584 480.004,152 C480.004,156.416 476.412,160 472.004,160 Z" id="Shape"></path>
                    </g>
                </g>
            </g>
            <text id="Neuromedical" font-family="Helvetica" font-size="400" font-weight="normal" fill="#000000">
                <tspan x="0" y="388">Neuromedical</tspan>
            </text>
            <text id="AI" font-family="Helvetica" font-size="400" font-weight="normal" fill="#000000">
                <tspan x="3338" y="445">AI</tspan>
            </text>
            <text id="Lab" font-family="Helvetica" font-size="250" font-weight="normal" fill="#000000">
                <tspan x="1999" y="597">LAB</tspan>
            </text>
        </g>
    </g>
</svg>